<?xml version="1.0" encoding="UTF-8"?>
<!DOCTYPE svg PUBLIC "-//W3C//DTD SVG 1.1//EN" "http://www.w3.org/Graphics/SVG/1.1/DTD/svg11.dtd">
<svg version="1.2" width="106.1mm" height="106.1mm" viewBox="0 0 10610 10610" preserveAspectRatio="xMidYMid" fill-rule="evenodd" stroke-width="28.222" stroke-linejoin="round" xmlns="http://www.w3.org/2000/svg" xmlns:ooo="http://xml.openoffice.org/svg/export" xmlns:xlink="http://www.w3.org/1999/xlink" xmlns:presentation="http://sun.com/xmlns/staroffice/presentation" xmlns:smil="http://www.w3.org/2001/SMIL20/" xmlns:anim="urn:oasis:names:tc:opendocument:xmlns:animation:1.0" xmlns:svg="urn:oasis:names:tc:opendocument:xmlns:svg-compatible:1.0" xml:space="preserve">
 <title>Phobos' Transit</title>

  <desc>
    A Martian solar eclipse, where the shadow of Phobos is seen against the Martian sun. SVG created from the GIF https://photojournal.jpl.nasa.gov/archive/PIA25179.gif
  </desc>
 
 <defs class="ClipPathGroup">
  <clipPath id="presentation_clip_path" clipPathUnits="userSpaceOnUse">
   <rect x="0" y="0" width="10610" height="10610"/>
  </clipPath>
  <clipPath id="presentation_clip_path_shrink" clipPathUnits="userSpaceOnUse">
   <rect x="10" y="10" width="10589" height="10589"/>
  </clipPath>
 </defs>
 <defs class="TextShapeIndex">
  <g ooo:slide="id1" ooo:id-list="id3 id4"/>
 </defs>
 <defs class="EmbeddedBulletChars">
  <g id="bullet-char-template-57356" transform="scale(0.00048828125,-0.00048828125)">
   <path d="M 580,1141 L 1163,571 580,0 -4,571 580,1141 Z"/>
  </g>
  <g id="bullet-char-template-57354" transform="scale(0.00048828125,-0.00048828125)">
   <path d="M 8,1128 L 1137,1128 1137,0 8,0 8,1128 Z"/>
  </g>
  <g id="bullet-char-template-10146" transform="scale(0.00048828125,-0.00048828125)">
   <path d="M 174,0 L 602,739 174,1481 1456,739 174,0 Z M 1358,739 L 309,1346 659,739 1358,739 Z"/>
  </g>
  <g id="bullet-char-template-10132" transform="scale(0.00048828125,-0.00048828125)">
   <path d="M 2015,739 L 1276,0 717,0 1260,543 174,543 174,936 1260,936 717,1481 1274,1481 2015,739 Z"/>
  </g>
  <g id="bullet-char-template-10007" transform="scale(0.00048828125,-0.00048828125)">
   <path d="M 0,-2 C -7,14 -16,27 -25,37 L 356,567 C 262,823 215,952 215,954 215,979 228,992 255,992 264,992 276,990 289,987 310,991 331,999 354,1012 L 381,999 492,748 772,1049 836,1024 860,1049 C 881,1039 901,1025 922,1006 886,937 835,863 770,784 769,783 710,716 594,584 L 774,223 C 774,196 753,168 711,139 L 727,119 C 717,90 699,76 672,76 641,76 570,178 457,381 L 164,-76 C 142,-110 111,-127 72,-127 30,-127 9,-110 8,-76 1,-67 -2,-52 -2,-32 -2,-23 -1,-13 0,-2 Z"/>
  </g>
  <g id="bullet-char-template-10004" transform="scale(0.00048828125,-0.00048828125)">
   <path d="M 285,-33 C 182,-33 111,30 74,156 52,228 41,333 41,471 41,549 55,616 82,672 116,743 169,778 240,778 293,778 328,747 346,684 L 369,508 C 377,444 397,411 428,410 L 1163,1116 C 1174,1127 1196,1133 1229,1133 1271,1133 1292,1118 1292,1087 L 1292,965 C 1292,929 1282,901 1262,881 L 442,47 C 390,-6 338,-33 285,-33 Z"/>
  </g>
  <g id="bullet-char-template-9679" transform="scale(0.00048828125,-0.00048828125)">
   <path d="M 813,0 C 632,0 489,54 383,161 276,268 223,411 223,592 223,773 276,916 383,1023 489,1130 632,1184 813,1184 992,1184 1136,1130 1245,1023 1353,916 1407,772 1407,592 1407,412 1353,268 1245,161 1136,54 992,0 813,0 Z"/>
  </g>
  <g id="bullet-char-template-8226" transform="scale(0.00048828125,-0.00048828125)">
   <path d="M 346,457 C 273,457 209,483 155,535 101,586 74,649 74,723 74,796 101,859 155,911 209,963 273,989 346,989 419,989 480,963 531,910 582,859 608,796 608,723 608,648 583,586 532,535 482,483 420,457 346,457 Z"/>
  </g>
  <g id="bullet-char-template-8211" transform="scale(0.00048828125,-0.00048828125)">
   <path d="M -4,459 L 1135,459 1135,606 -4,606 -4,459 Z"/>
  </g>
  <g id="bullet-char-template-61548" transform="scale(0.00048828125,-0.00048828125)">
   <path d="M 173,740 C 173,903 231,1043 346,1159 462,1274 601,1332 765,1332 928,1332 1067,1274 1183,1159 1299,1043 1357,903 1357,740 1357,577 1299,437 1183,322 1067,206 928,148 765,148 601,148 462,206 346,322 231,437 173,577 173,740 Z"/>
  </g>
 </defs>
 <g>
  <g id="id2" class="Master_Slide">
   <g id="bg-id2" class="Background"/>
   <g id="bo-id2" class="BackgroundObjects"/>
  </g>
 </g>
 <g class="SlideGroup">
  <g>
   <g id="container-id1">
    <g id="id1" class="Slide" clip-path="url(#presentation_clip_path)">
     <g class="Page">
      <g class="com.sun.star.drawing.ClosedBezierShape">
       <g id="id3">
        <rect class="BoundingBox" stroke="none" fill="none" x="1700" y="1631" width="7091" height="7102"/>
        <g>
         <defs>
          <pattern id="pattern1" x="1701" y="1631" width="7089" height="7101" patternUnits="userSpaceOnUse">
           <g transform="translate(-1701,-1631)">
            <defs>
             <clipPath id="clip_path_1" clipPathUnits="userSpaceOnUse">
              <path d="M 1693,1640 L 8784,1640 8784,8731 1693,8731 1693,1640 Z"/>
             </clipPath>
            </defs>
            <g clip-path="url(#clip_path_1)">
             <path fill="rgb(255,222,89)" stroke="none" d="M 1700,1630 L 8790,1630 8790,8732 1700,8732 1700,1630 Z M 9546,5181 L 9545,5074 9541,4967 9534,4860 9525,4753 9513,4646 9498,4540 9481,4434 9461,4329 9438,4224 9413,4120 9385,4016 9355,3913 9322,3811 9287,3710 9249,3610 9208,3510 9165,3412 9120,3315 9072,3219 9022,3124 8970,3031 8915,2938 8858,2848 8799,2758 8737,2670 8673,2584 8608,2499 8540,2416 8470,2335 8398,2256 8324,2178 8248,2102 8170,2028 8091,1956 8010,1886 7927,1818 7842,1753 7756,1689 7668,1627 7578,1568 7488,1511 7396,1456 7302,1404 7207,1354 7111,1306 7014,1261 6916,1218 6816,1177 6716,1139 6615,1104 6513,1071 6410,1041 6306,1013 6202,988 6097,965 5992,945 5886,928 5780,913 5673,901 5566,892 5459,885 5352,881 5245,880 5245,880 5138,881 5031,885 4924,892 4817,901 4710,913 4604,928 4498,945 4393,965 4288,988 4184,1013 4080,1041 3977,1071 3875,1104 3774,1139 3674,1177 3574,1218 3476,1261 3379,1306 3283,1354 3188,1404 3094,1456 3002,1511 2912,1568 2822,1627 2734,1689 2648,1753 2563,1818 2480,1886 2399,1956 2320,2028 2242,2102 2166,2178 2092,2256 2020,2335 1950,2416 1882,2499 1817,2584 1753,2670 1691,2758 1632,2848 1575,2938 1520,3031 1468,3124 1418,3219 1370,3315 1325,3412 1282,3510 1241,3610 1203,3710 1168,3811 1135,3913 1105,4016 1077,4120 1052,4224 1029,4329 1009,4434 992,4540 977,4646 965,4753 956,4860 949,4967 945,5074 944,5181 944,5181 945,5288 949,5395 956,5502 965,5609 977,5716 992,5822 1009,5928 1029,6033 1052,6138 1077,6242 1105,6346 1135,6449 1168,6551 1203,6652 1241,6752 1282,6852 1325,6950 1370,7047 1418,7143 1468,7238 1520,7331 1575,7424 1632,7514 1691,7604 1753,7692 1817,7778 1882,7863 1950,7946 2020,8027 2092,8106 2166,8184 2242,8260 2320,8334 2399,8406 2480,8476 2563,8544 2648,8609 2734,8673 2822,8735 2912,8794 3002,8851 3094,8906 3188,8958 3283,9008 3379,9056 3476,9101 3574,9144 3674,9185 3774,9223 3875,9258 3977,9291 4080,9321 4184,9349 4288,9374 4393,9397 4498,9417 4604,9434 4710,9449 4817,9461 4924,9470 5031,9477 5138,9481 5245,9482 5245,9482 5352,9481 5459,9477 5566,9470 5673,9461 5780,9449 5886,9434 5992,9417 6097,9397 6202,9374 6306,9349 6410,9321 6513,9291 6615,9258 6716,9223 6816,9185 6916,9144 7014,9101 7111,9056 7207,9008 7302,8958 7396,8906 7488,8851 7578,8794 7668,8735 7756,8673 7842,8609 7927,8544 8010,8476 8091,8406 8170,8334 8248,8260 8324,8184 8398,8106 8470,8027 8540,7946 8608,7863 8673,7778 8737,7692 8799,7604 8858,7514 8915,7424 8970,7331 9022,7238 9072,7143 9120,7047 9165,6950 9208,6852 9249,6752 9287,6652 9322,6551 9355,6449 9385,6346 9413,6242 9438,6138 9461,6033 9481,5928 9498,5822 9513,5716 9525,5609 9534,5502 9541,5395 9545,5288 9546,5181 Z"/>
             <path fill="rgb(255,226,112)" stroke="none" d="M 9546,5181 L 9545,5074 9541,4967 9534,4860 9525,4753 9513,4646 9498,4540 9481,4434 9461,4329 9438,4224 9413,4120 9385,4016 9355,3913 9322,3811 9287,3710 9249,3610 9208,3510 9165,3412 9120,3315 9072,3219 9022,3124 8970,3031 8915,2938 8858,2848 8799,2758 8737,2670 8673,2584 8608,2499 8540,2416 8470,2335 8398,2256 8324,2178 8248,2102 8170,2028 8091,1956 8010,1886 7927,1818 7842,1753 7756,1689 7668,1627 7578,1568 7488,1511 7396,1456 7302,1404 7207,1354 7111,1306 7014,1261 6916,1218 6816,1177 6716,1139 6615,1104 6513,1071 6410,1041 6306,1013 6202,988 6097,965 5992,945 5886,928 5780,913 5673,901 5566,892 5459,885 5352,881 5245,880 5245,880 5138,881 5031,885 4924,892 4817,901 4710,913 4604,928 4498,945 4393,965 4288,988 4184,1013 4080,1041 3977,1071 3875,1104 3774,1139 3674,1177 3574,1218 3476,1261 3379,1306 3283,1354 3188,1404 3094,1456 3002,1511 2912,1568 2822,1627 2734,1689 2648,1753 2563,1818 2480,1886 2399,1956 2320,2028 2242,2102 2166,2178 2092,2256 2020,2335 1950,2416 1882,2499 1817,2584 1753,2670 1691,2758 1632,2848 1575,2938 1520,3031 1468,3124 1418,3219 1370,3315 1325,3412 1282,3510 1241,3610 1203,3710 1168,3811 1135,3913 1105,4016 1077,4120 1052,4224 1029,4329 1009,4434 992,4540 977,4646 965,4753 956,4860 949,4967 945,5074 944,5181 944,5181 945,5288 949,5395 956,5502 965,5609 977,5716 992,5822 1009,5928 1029,6033 1052,6138 1077,6242 1105,6346 1135,6449 1168,6551 1203,6652 1241,6752 1282,6852 1325,6950 1370,7047 1418,7143 1468,7238 1520,7331 1575,7424 1632,7514 1691,7604 1753,7692 1817,7778 1882,7863 1950,7946 2020,8027 2092,8106 2166,8184 2242,8260 2320,8334 2399,8406 2480,8476 2563,8544 2648,8609 2734,8673 2822,8735 2912,8794 3002,8851 3094,8906 3188,8958 3283,9008 3379,9056 3476,9101 3574,9144 3674,9185 3774,9223 3875,9258 3977,9291 4080,9321 4184,9349 4288,9374 4393,9397 4498,9417 4604,9434 4710,9449 4817,9461 4924,9470 5031,9477 5138,9481 5245,9482 5245,9482 5352,9481 5459,9477 5566,9470 5673,9461 5780,9449 5886,9434 5992,9417 6097,9397 6202,9374 6306,9349 6410,9321 6513,9291 6615,9258 6716,9223 6816,9185 6916,9144 7014,9101 7111,9056 7207,9008 7302,8958 7396,8906 7488,8851 7578,8794 7668,8735 7756,8673 7842,8609 7927,8544 8010,8476 8091,8406 8170,8334 8248,8260 8324,8184 8398,8106 8470,8027 8540,7946 8608,7863 8673,7778 8737,7692 8799,7604 8858,7514 8915,7424 8970,7331 9022,7238 9072,7143 9120,7047 9165,6950 9208,6852 9249,6752 9287,6652 9322,6551 9355,6449 9385,6346 9413,6242 9438,6138 9461,6033 9481,5928 9498,5822 9513,5716 9525,5609 9534,5502 9541,5395 9545,5288 9546,5181 Z M 8829,5181 L 8824,4999 8811,4818 8788,4638 8756,4460 8715,4283 8665,4108 8606,3936 8539,3768 8463,3603 8379,3442 8287,3285 8187,3134 8079,2987 7964,2846 7843,2712 7714,2583 7580,2462 7439,2347 7292,2239 7141,2139 6984,2047 6823,1963 6658,1887 6490,1820 6318,1761 6143,1711 5966,1670 5788,1638 5608,1615 5427,1602 5245,1597 5245,1597 5063,1602 4882,1615 4702,1638 4524,1670 4347,1711 4172,1761 4000,1820 3832,1887 3667,1963 3506,2047 3349,2139 3198,2239 3051,2347 2910,2462 2776,2583 2647,2712 2526,2846 2411,2987 2303,3134 2203,3285 2111,3442 2027,3603 1951,3768 1884,3936 1825,4108 1775,4283 1734,4460 1702,4638 1679,4818 1666,4999 1661,5181 1661,5181 1666,5363 1679,5544 1702,5724 1734,5902 1775,6079 1825,6254 1884,6426 1951,6594 2027,6759 2111,6920 2203,7077 2303,7228 2411,7375 2526,7516 2647,7650 2776,7779 2910,7900 3051,8015 3198,8123 3349,8223 3506,8315 3667,8399 3832,8475 4000,8542 4172,8601 4347,8651 4524,8692 4702,8724 4882,8747 5063,8760 5245,8765 5245,8765 5427,8760 5608,8747 5788,8724 5966,8692 6143,8651 6318,8601 6490,8542 6658,8475 6823,8399 6984,8315 7141,8223 7292,8123 7439,8015 7580,7900 7714,7779 7843,7650 7964,7516 8079,7375 8187,7228 8287,7077 8379,6920 8463,6759 8539,6594 8606,6426 8665,6254 8715,6079 8756,5902 8788,5724 8811,5544 8824,5363 8829,5181 Z"/>
             <path fill="rgb(255,231,136)" stroke="none" d="M 8829,5181 L 8824,4999 8811,4818 8788,4638 8756,4460 8715,4283 8665,4108 8606,3936 8539,3768 8463,3603 8379,3442 8287,3285 8187,3134 8079,2987 7964,2846 7843,2712 7714,2583 7580,2462 7439,2347 7292,2239 7141,2139 6984,2047 6823,1963 6658,1887 6490,1820 6318,1761 6143,1711 5966,1670 5788,1638 5608,1615 5427,1602 5245,1597 5245,1597 5063,1602 4882,1615 4702,1638 4524,1670 4347,1711 4172,1761 4000,1820 3832,1887 3667,1963 3506,2047 3349,2139 3198,2239 3051,2347 2910,2462 2776,2583 2647,2712 2526,2846 2411,2987 2303,3134 2203,3285 2111,3442 2027,3603 1951,3768 1884,3936 1825,4108 1775,4283 1734,4460 1702,4638 1679,4818 1666,4999 1661,5181 1661,5181 1666,5363 1679,5544 1702,5724 1734,5902 1775,6079 1825,6254 1884,6426 1951,6594 2027,6759 2111,6920 2203,7077 2303,7228 2411,7375 2526,7516 2647,7650 2776,7779 2910,7900 3051,8015 3198,8123 3349,8223 3506,8315 3667,8399 3832,8475 4000,8542 4172,8601 4347,8651 4524,8692 4702,8724 4882,8747 5063,8760 5245,8765 5245,8765 5427,8760 5608,8747 5788,8724 5966,8692 6143,8651 6318,8601 6490,8542 6658,8475 6823,8399 6984,8315 7141,8223 7292,8123 7439,8015 7580,7900 7714,7779 7843,7650 7964,7516 8079,7375 8187,7228 8287,7077 8379,6920 8463,6759 8539,6594 8606,6426 8665,6254 8715,6079 8756,5902 8788,5724 8811,5544 8824,5363 8829,5181 Z M 8112,5180 L 8108,5035 8097,4890 8079,4746 8053,4603 8020,4461 7980,4321 7933,4184 7880,4049 7819,3917 7752,3788 7678,3663 7598,3542 7512,3424 7420,3312 7323,3204 7220,3101 7112,3004 7000,2912 6882,2826 6761,2746 6636,2672 6507,2605 6375,2544 6240,2491 6103,2444 5963,2404 5821,2371 5678,2345 5534,2327 5389,2316 5244,2312 5244,2312 5099,2316 4954,2327 4810,2345 4667,2371 4525,2404 4385,2444 4248,2491 4113,2544 3981,2605 3852,2672 3727,2746 3606,2826 3488,2912 3376,3004 3268,3101 3165,3204 3068,3312 2976,3424 2890,3542 2810,3663 2736,3788 2669,3917 2608,4049 2555,4184 2508,4321 2468,4461 2435,4603 2409,4746 2391,4890 2380,5035 2376,5180 2376,5180 2380,5325 2391,5470 2409,5614 2435,5757 2468,5899 2508,6039 2555,6176 2608,6311 2669,6443 2736,6572 2810,6697 2890,6818 2976,6936 3068,7048 3165,7156 3268,7259 3376,7356 3488,7448 3606,7534 3727,7614 3852,7688 3981,7755 4113,7816 4248,7869 4385,7916 4525,7956 4667,7989 4810,8015 4954,8033 5099,8044 5244,8048 5244,8048 5389,8044 5534,8033 5678,8015 5821,7989 5963,7956 6103,7916 6240,7869 6375,7816 6507,7755 6636,7688 6761,7614 6882,7534 7000,7448 7112,7356 7220,7259 7323,7156 7420,7048 7512,6936 7598,6818 7678,6697 7752,6572 7819,6443 7880,6311 7933,6176 7980,6039 8020,5899 8053,5757 8079,5614 8097,5470 8108,5325 8112,5180 Z"/>
             <path fill="rgb(255,236,160)" stroke="none" d="M 8112,5180 L 8108,5035 8097,4890 8079,4746 8053,4603 8020,4461 7980,4321 7933,4184 7880,4049 7819,3917 7752,3788 7678,3663 7598,3542 7512,3424 7420,3312 7323,3204 7220,3101 7112,3004 7000,2912 6882,2826 6761,2746 6636,2672 6507,2605 6375,2544 6240,2491 6103,2444 5963,2404 5821,2371 5678,2345 5534,2327 5389,2316 5244,2312 5244,2312 5099,2316 4954,2327 4810,2345 4667,2371 4525,2404 4385,2444 4248,2491 4113,2544 3981,2605 3852,2672 3727,2746 3606,2826 3488,2912 3376,3004 3268,3101 3165,3204 3068,3312 2976,3424 2890,3542 2810,3663 2736,3788 2669,3917 2608,4049 2555,4184 2508,4321 2468,4461 2435,4603 2409,4746 2391,4890 2380,5035 2376,5180 2376,5180 2380,5325 2391,5470 2409,5614 2435,5757 2468,5899 2508,6039 2555,6176 2608,6311 2669,6443 2736,6572 2810,6697 2890,6818 2976,6936 3068,7048 3165,7156 3268,7259 3376,7356 3488,7448 3606,7534 3727,7614 3852,7688 3981,7755 4113,7816 4248,7869 4385,7916 4525,7956 4667,7989 4810,8015 4954,8033 5099,8044 5244,8048 5244,8048 5389,8044 5534,8033 5678,8015 5821,7989 5963,7956 6103,7916 6240,7869 6375,7816 6507,7755 6636,7688 6761,7614 6882,7534 7000,7448 7112,7356 7220,7259 7323,7156 7420,7048 7512,6936 7598,6818 7678,6697 7752,6572 7819,6443 7880,6311 7933,6176 7980,6039 8020,5899 8053,5757 8079,5614 8097,5470 8108,5325 8112,5180 Z M 7395,5180 L 7392,5071 7384,4962 7370,4854 7351,4747 7326,4641 7296,4536 7261,4433 7221,4332 7175,4233 7125,4136 7069,4042 7009,3951 6945,3863 6876,3779 6803,3698 6726,3621 6645,3548 6561,3479 6473,3415 6382,3355 6288,3299 6191,3249 6092,3203 5991,3163 5888,3128 5783,3098 5677,3073 5570,3054 5462,3040 5353,3032 5244,3029 5244,3029 5135,3032 5026,3040 4918,3054 4811,3073 4705,3098 4600,3128 4497,3163 4396,3203 4297,3249 4200,3299 4106,3355 4015,3415 3927,3479 3843,3548 3762,3621 3685,3698 3612,3779 3543,3863 3479,3951 3419,4042 3363,4136 3313,4233 3267,4332 3227,4433 3192,4536 3162,4641 3137,4747 3118,4854 3104,4962 3096,5071 3093,5180 3093,5180 3096,5289 3104,5398 3118,5506 3137,5613 3162,5719 3192,5824 3227,5927 3267,6028 3313,6127 3363,6224 3419,6318 3479,6409 3543,6497 3612,6581 3685,6662 3762,6739 3843,6812 3927,6881 4015,6945 4106,7005 4200,7061 4297,7111 4396,7157 4497,7197 4600,7232 4705,7262 4811,7287 4918,7306 5026,7320 5135,7328 5244,7331 5244,7331 5353,7328 5462,7320 5570,7306 5677,7287 5783,7262 5888,7232 5991,7197 6092,7157 6191,7111 6288,7061 6382,7005 6473,6945 6561,6881 6645,6812 6726,6739 6803,6662 6876,6581 6945,6497 7009,6409 7069,6318 7125,6224 7175,6127 7221,6028 7261,5927 7296,5824 7326,5719 7351,5613 7370,5506 7384,5398 7392,5289 7395,5180 Z"/>
             <path fill="rgb(255,240,183)" stroke="none" d="M 7395,5180 L 7392,5071 7384,4962 7370,4854 7351,4747 7326,4641 7296,4536 7261,4433 7221,4332 7175,4233 7125,4136 7069,4042 7009,3951 6945,3863 6876,3779 6803,3698 6726,3621 6645,3548 6561,3479 6473,3415 6382,3355 6288,3299 6191,3249 6092,3203 5991,3163 5888,3128 5783,3098 5677,3073 5570,3054 5462,3040 5353,3032 5244,3029 5244,3029 5135,3032 5026,3040 4918,3054 4811,3073 4705,3098 4600,3128 4497,3163 4396,3203 4297,3249 4200,3299 4106,3355 4015,3415 3927,3479 3843,3548 3762,3621 3685,3698 3612,3779 3543,3863 3479,3951 3419,4042 3363,4136 3313,4233 3267,4332 3227,4433 3192,4536 3162,4641 3137,4747 3118,4854 3104,4962 3096,5071 3093,5180 3093,5180 3096,5289 3104,5398 3118,5506 3137,5613 3162,5719 3192,5824 3227,5927 3267,6028 3313,6127 3363,6224 3419,6318 3479,6409 3543,6497 3612,6581 3685,6662 3762,6739 3843,6812 3927,6881 4015,6945 4106,7005 4200,7061 4297,7111 4396,7157 4497,7197 4600,7232 4705,7262 4811,7287 4918,7306 5026,7320 5135,7328 5244,7331 5244,7331 5353,7328 5462,7320 5570,7306 5677,7287 5783,7262 5888,7232 5991,7197 6092,7157 6191,7111 6288,7061 6382,7005 6473,6945 6561,6881 6645,6812 6726,6739 6803,6662 6876,6581 6945,6497 7009,6409 7069,6318 7125,6224 7175,6127 7221,6028 7261,5927 7296,5824 7326,5719 7351,5613 7370,5506 7384,5398 7392,5289 7395,5180 Z M 6678,5180 L 6676,5107 6671,5035 6661,4963 6649,4891 6632,4821 6612,4751 6589,4682 6562,4614 6531,4548 6498,4484 6461,4421 6421,4361 6378,4302 6332,4246 6283,4192 6232,4141 6178,4092 6122,4046 6063,4003 6003,3963 5940,3926 5876,3893 5810,3862 5742,3835 5673,3812 5603,3792 5533,3775 5461,3763 5389,3753 5317,3748 5244,3746 5244,3746 5171,3748 5099,3753 5027,3763 4955,3775 4885,3792 4815,3812 4746,3835 4678,3862 4612,3893 4548,3926 4485,3963 4425,4003 4366,4046 4310,4092 4256,4141 4205,4192 4156,4246 4110,4302 4067,4361 4027,4421 3990,4484 3957,4548 3926,4614 3899,4682 3876,4751 3856,4821 3839,4891 3827,4963 3817,5035 3812,5107 3810,5180 3810,5180 3812,5253 3817,5325 3827,5397 3839,5469 3856,5539 3876,5609 3899,5678 3926,5746 3957,5812 3990,5876 4027,5939 4067,5999 4110,6058 4156,6114 4205,6168 4256,6219 4310,6268 4366,6314 4425,6357 4485,6397 4548,6434 4612,6467 4678,6498 4746,6525 4815,6548 4885,6568 4955,6585 5027,6597 5099,6607 5171,6612 5244,6614 5244,6614 5317,6612 5389,6607 5461,6597 5533,6585 5603,6568 5673,6548 5742,6525 5810,6498 5876,6467 5940,6434 6003,6397 6063,6357 6122,6314 6178,6268 6232,6219 6283,6168 6332,6114 6378,6058 6421,5999 6461,5939 6498,5876 6531,5812 6562,5746 6589,5678 6612,5609 6632,5539 6649,5469 6661,5397 6671,5325 6676,5253 6678,5180 Z"/>
             <path fill="rgb(255,245,207)" stroke="none" d="M 6678,5180 L 6676,5107 6671,5035 6661,4963 6649,4891 6632,4821 6612,4751 6589,4682 6562,4614 6531,4548 6498,4484 6461,4421 6421,4361 6378,4302 6332,4246 6283,4192 6232,4141 6178,4092 6122,4046 6063,4003 6003,3963 5940,3926 5876,3893 5810,3862 5742,3835 5673,3812 5603,3792 5533,3775 5461,3763 5389,3753 5317,3748 5244,3746 5244,3746 5171,3748 5099,3753 5027,3763 4955,3775 4885,3792 4815,3812 4746,3835 4678,3862 4612,3893 4548,3926 4485,3963 4425,4003 4366,4046 4310,4092 4256,4141 4205,4192 4156,4246 4110,4302 4067,4361 4027,4421 3990,4484 3957,4548 3926,4614 3899,4682 3876,4751 3856,4821 3839,4891 3827,4963 3817,5035 3812,5107 3810,5180 3810,5180 3812,5253 3817,5325 3827,5397 3839,5469 3856,5539 3876,5609 3899,5678 3926,5746 3957,5812 3990,5876 4027,5939 4067,5999 4110,6058 4156,6114 4205,6168 4256,6219 4310,6268 4366,6314 4425,6357 4485,6397 4548,6434 4612,6467 4678,6498 4746,6525 4815,6548 4885,6568 4955,6585 5027,6597 5099,6607 5171,6612 5244,6614 5244,6614 5317,6612 5389,6607 5461,6597 5533,6585 5603,6568 5673,6548 5742,6525 5810,6498 5876,6467 5940,6434 6003,6397 6063,6357 6122,6314 6178,6268 6232,6219 6283,6168 6332,6114 6378,6058 6421,5999 6461,5939 6498,5876 6531,5812 6562,5746 6589,5678 6612,5609 6632,5539 6649,5469 6661,5397 6671,5325 6676,5253 6678,5180 Z M 5961,5180 L 5960,5144 5957,5107 5953,5071 5946,5036 5938,5000 5928,4965 5916,4931 5903,4897 5888,4864 5871,4832 5852,4801 5832,4770 5811,4741 5788,4713 5764,4686 5738,4660 5711,4636 5683,4613 5654,4592 5623,4572 5592,4553 5560,4536 5527,4521 5493,4508 5459,4496 5424,4486 5388,4478 5353,4471 5317,4467 5280,4464 5244,4463 5244,4463 5208,4464 5171,4467 5135,4471 5100,4478 5064,4486 5029,4496 4995,4508 4961,4521 4928,4536 4896,4553 4865,4572 4834,4592 4805,4613 4777,4636 4750,4660 4724,4686 4700,4713 4677,4741 4656,4770 4636,4801 4617,4832 4600,4864 4585,4897 4572,4931 4560,4965 4550,5000 4542,5036 4535,5071 4531,5107 4528,5144 4527,5180 4527,5180 4528,5216 4531,5253 4535,5289 4542,5324 4550,5360 4560,5395 4572,5429 4585,5463 4600,5496 4617,5528 4636,5559 4656,5590 4677,5619 4700,5647 4724,5674 4750,5700 4777,5724 4805,5747 4834,5768 4865,5788 4896,5807 4928,5824 4961,5839 4995,5852 5029,5864 5064,5874 5100,5882 5135,5889 5171,5893 5208,5896 5244,5897 5244,5897 5280,5896 5317,5893 5353,5889 5388,5882 5424,5874 5459,5864 5493,5852 5527,5839 5560,5824 5592,5807 5623,5788 5654,5768 5683,5747 5711,5724 5738,5700 5764,5674 5788,5647 5811,5619 5832,5590 5852,5559 5871,5528 5888,5496 5903,5463 5916,5429 5928,5395 5938,5360 5946,5324 5953,5289 5957,5253 5960,5216 5961,5180 Z"/>
             <path fill="rgb(255,255,255)" stroke="none" d="M 5961,5180 L 5960,5144 5957,5107 5953,5071 5946,5036 5938,5000 5928,4965 5916,4931 5903,4897 5888,4864 5871,4832 5852,4801 5832,4770 5811,4741 5788,4713 5764,4686 5738,4660 5711,4636 5683,4613 5654,4592 5623,4572 5592,4553 5560,4536 5527,4521 5493,4508 5459,4496 5424,4486 5388,4478 5353,4471 5317,4467 5280,4464 5244,4463 5244,4463 5208,4464 5171,4467 5135,4471 5100,4478 5064,4486 5029,4496 4995,4508 4961,4521 4928,4536 4896,4553 4865,4572 4834,4592 4805,4613 4777,4636 4750,4660 4724,4686 4700,4713 4677,4741 4656,4770 4636,4801 4617,4832 4600,4864 4585,4897 4572,4931 4560,4965 4550,5000 4542,5036 4535,5071 4531,5107 4528,5144 4527,5180 4527,5180 4528,5216 4531,5253 4535,5289 4542,5324 4550,5360 4560,5395 4572,5429 4585,5463 4600,5496 4617,5528 4636,5559 4656,5590 4677,5619 4700,5647 4724,5674 4750,5700 4777,5724 4805,5747 4834,5768 4865,5788 4896,5807 4928,5824 4961,5839 4995,5852 5029,5864 5064,5874 5100,5882 5135,5889 5171,5893 5208,5896 5244,5897 5244,5897 5280,5896 5317,5893 5353,5889 5388,5882 5424,5874 5459,5864 5493,5852 5527,5839 5560,5824 5592,5807 5623,5788 5654,5768 5683,5747 5711,5724 5738,5700 5764,5674 5788,5647 5811,5619 5832,5590 5852,5559 5871,5528 5888,5496 5903,5463 5916,5429 5928,5395 5938,5360 5946,5324 5953,5289 5957,5253 5960,5216 5961,5180 Z"/>
            </g>
           </g>
          </pattern>
         </defs>
         <path style="fill:url(#pattern1)" d="M 4960,1639 L 4860,1650 4748,1665 4641,1681 4559,1696 4415,1726 4334,1745 4245,1769 4151,1799 4053,1834 3848,1916 3643,2012 3547,2063 3443,2122 3353,2175 3322,2195 3303,2208 3301,2210 3298,2212 3293,2216 3276,2227 3256,2239 3235,2251 3222,2259 3208,2268 3175,2291 3139,2318 3106,2345 3037,2402 3004,2427 2979,2446 2966,2457 2946,2474 2892,2525 2747,2664 2611,2799 2568,2844 2556,2858 2553,2862 2552,2864 2552,2864 2552,2864 2551,2865 2551,2865 2551,2866 2550,2868 2545,2875 2527,2898 2467,2970 2407,3044 2389,3068 2384,3076 2383,3078 2383,3079 2383,3079 2383,3079 2382,3080 2382,3080 2382,3081 2381,3083 2377,3090 2361,3114 2337,3148 2309,3187 2278,3229 2251,3269 2229,3302 2221,3315 2216,3324 2205,3344 2190,3371 2154,3430 2120,3487 2084,3559 2041,3647 1993,3756 1928,3905 1915,3935 1905,3962 1901,3973 1898,3983 1896,3990 1896,3993 1896,3995 1895,3998 1895,4001 1893,4009 1887,4032 1877,4062 1866,4095 1838,4179 1824,4225 1813,4266 1793,4337 1785,4364 1782,4373 1780,4379 1759,4443 1742,4520 1716,4710 1703,4933 1701,5177 1710,5426 1731,5666 1763,5884 1783,5980 1806,6065 1850,6219 1877,6311 1890,6353 1902,6383 1954,6515 1998,6621 2054,6742 2110,6854 2135,6899 2156,6933 2230,7055 2247,7084 2272,7124 2334,7213 2392,7296 2413,7328 2426,7346 2430,7353 2435,7360 2451,7379 2469,7400 2488,7420 2507,7442 2527,7465 2544,7487 2551,7497 2557,7505 2562,7514 2570,7523 2588,7545 2609,7568 2631,7589 2715,7673 2765,7726 2823,7782 2959,7901 3111,8021 3267,8130 3408,8220 3556,8305 3709,8382 3866,8453 4024,8516 4183,8571 4340,8617 4496,8653 4767,8700 5037,8726 5304,8731 5569,8717 5833,8682 6096,8627 6358,8551 6620,8455 6711,8415 6752,8395 6785,8378 6813,8363 6845,8346 6876,8330 6905,8316 6957,8291 7012,8261 7071,8226 7134,8186 7278,8087 7448,7960 7540,7886 7633,7804 7726,7716 7816,7624 7903,7530 7983,7437 8056,7345 8119,7256 8133,7236 8145,7218 8155,7205 8158,7201 8159,7199 8160,7198 8169,7189 8181,7176 8206,7140 8268,7040 8340,6908 8415,6758 8554,6450 8605,6317 8624,6261 8637,6213 8642,6189 8649,6167 8655,6149 8657,6142 8660,6136 8661,6134 8662,6132 8664,6125 8667,6118 8669,6109 8674,6089 8679,6067 8720,5864 8759,5636 8782,5405 8789,5171 8781,4936 8757,4702 8717,4468 8662,4236 8591,4007 8528,3846 8450,3664 8375,3507 8346,3452 8335,3433 8326,3420 8322,3416 8317,3409 8306,3392 8280,3345 8218,3244 8141,3132 8051,3014 7953,2895 7851,2778 7748,2670 7649,2574 7558,2494 7450,2404 7413,2373 7364,2335 7243,2248 7111,2163 7050,2125 6995,2094 6864,2022 6788,1984 6695,1941 6477,1854 6252,1777 6151,1748 6066,1727 5896,1691 5806,1674 5697,1659 5445,1638 5184,1631 5064,1633 4960,1639 Z M 6595,4402 L 6790,4476 6856,4506 6885,4521 6912,4538 6938,4556 6966,4577 7026,4630 7201,4796 7264,4860 7319,4924 7367,4987 7408,5054 7444,5124 7475,5200 7502,5284 7527,5376 7559,5510 7558,5862 7555,6091 7552,6163 7547,6217 7543,6238 7538,6257 7531,6273 7524,6289 7515,6305 7505,6320 7479,6356 7375,6504 7335,6569 7300,6632 7268,6696 7238,6765 7177,6928 7146,7010 7112,7088 7077,7159 7060,7190 7044,7218 7031,7238 7017,7259 7000,7281 6980,7306 6927,7367 6854,7448 6658,7663 6577,7745 6488,7819 6393,7886 6295,7943 6199,7989 6152,8007 6106,8021 6063,8032 6022,8039 5983,8041 5948,8039 5893,8032 5850,8024 5831,8019 5813,8014 5796,8009 5780,8002 5744,7991 5698,7978 5577,7952 5429,7925 5267,7901 5112,7879 5054,7868 5004,7855 4960,7841 4921,7825 4884,7805 4847,7781 4811,7756 4776,7729 4743,7699 4711,7666 4680,7631 4651,7594 4595,7512 4543,7420 4497,7319 4455,7208 4419,7087 4414,7070 4411,7047 4404,6988 4398,6913 4394,6822 4388,6726 4381,6643 4372,6573 4362,6512 4353,6469 4347,6430 4345,6414 4345,6401 4344,6395 4345,6391 4345,6388 4345,6386 4346,6385 4346,6384 4346,6382 4347,6376 4349,6357 4353,6294 4361,6097 4366,5963 4375,5849 4388,5752 4406,5668 4417,5629 4431,5592 4445,5557 4462,5522 4502,5452 4552,5378 4685,5183 4714,5138 4744,5098 4779,5060 4824,5019 4883,4971 4962,4913 5199,4746 5271,4700 5357,4652 5452,4603 5553,4556 5654,4513 5753,4474 5846,4443 5928,4420 6124,4371 6187,4357 6245,4347 6300,4343 6354,4343 6408,4350 6465,4362 6527,4379 6595,4402 Z"/>
        </g>
       </g>
      </g>
      <g class="com.sun.star.drawing.ClosedBezierShape">
       <g id="id4">
        <rect class="BoundingBox" stroke="none" fill="none" x="13" y="13" width="10584" height="10584"/>
        <path fill="rgb(4,4,4)" stroke="none" d="M 13,5305 L 13,10595 5305,10595 10595,10595 10595,5305 10595,13 5305,13 13,13 13,5305 Z M 5658,1654 C 5751,1666 5858,1683 5896,1692 5934,1700 6011,1717 6066,1728 6270,1769 6693,1926 6864,2023 6899,2043 6958,2075 6995,2095 7130,2167 7370,2330 7450,2405 7470,2423 7518,2463 7558,2495 7789,2679 8141,3095 8280,3346 8298,3378 8318,3412 8326,3421 8367,3470 8528,3827 8591,4008 8801,4613 8846,5261 8720,5864 8703,5949 8684,6040 8679,6067 8674,6095 8666,6126 8660,6136 8655,6147 8644,6181 8637,6213 8584,6439 8259,7111 8160,7198 8157,7201 8138,7227 8119,7256 7996,7440 7720,7742 7548,7880 7280,8096 7059,8246 6905,8316 6872,8331 6818,8359 6785,8378 6306,8649 5475,8787 4825,8705 4302,8639 3948,8521 3457,8248 3220,8117 2880,7853 2716,7673 2697,7653 2660,7616 2632,7589 2604,7563 2571,7525 2558,7505 2545,7484 2514,7446 2489,7420 2464,7394 2436,7360 2427,7346 2418,7331 2377,7271 2335,7213 2294,7155 2247,7084 2231,7055 2214,7026 2181,6971 2157,6933 2109,6859 2001,6635 1955,6515 1939,6474 1916,6415 1903,6383 1890,6351 1866,6277 1850,6219 1834,6161 1814,6092 1806,6065 1678,5644 1663,4679 1780,4380 1785,4368 1800,4317 1813,4267 1825,4218 1850,4141 1866,4096 1883,4051 1897,4006 1897,3996 1897,3986 1911,3946 1929,3906 1946,3866 1976,3799 1994,3757 2064,3597 2113,3498 2155,3431 2179,3393 2207,3345 2217,3325 2228,3305 2269,3243 2310,3188 2351,3133 2384,3084 2384,3080 2384,3075 2422,3026 2468,2971 2515,2916 2553,2868 2553,2865 2553,2852 2932,2482 2980,2447 3008,2427 3065,2381 3107,2346 3149,2310 3207,2268 3236,2252 3265,2236 3296,2217 3304,2209 3335,2184 3534,2068 3644,2013 3913,1878 4211,1767 4416,1727 4442,1722 4507,1708 4560,1697 4647,1678 4844,1650 4961,1640 5117,1626 5500,1634 5658,1654 Z M 6124,4372 C 6060,4388 5972,4410 5928,4421 5727,4468 5372,4627 5200,4747 4802,5024 4770,5051 4686,5184 4657,5230 4597,5317 4553,5378 4408,5581 4374,5707 4362,6097 4358,6246 4351,6375 4347,6385 4343,6394 4350,6452 4363,6512 4379,6587 4389,6683 4395,6822 4400,6951 4409,7046 4420,7087 4512,7420 4655,7654 4848,7781 4951,7849 5024,7870 5268,7901 5487,7930 5703,7972 5780,8002 5825,8020 5867,8029 5948,8039 6128,8061 6459,7886 6658,7663 6696,7621 6784,7524 6854,7448 6969,7322 7013,7270 7044,7218 7087,7148 7139,7036 7177,6928 7265,6678 7317,6578 7479,6356 7558,6248 7556,6256 7558,5862 L 7559,5510 7527,5376 C 7465,5117 7382,4970 7201,4797 6899,4506 6935,4529 6595,4403 6404,4333 6301,4326 6124,4372 Z"/>
       </g>
      </g>
     </g>
    </g>
   </g>
  </g>
 </g>
</svg>